PathFileType	4	(X/Y/Z)	imu.trc
DataRate	CameraRate	NumFrames	NumMarkers	Units	OrigDataRate	OrigDataStartFrame	OrigNumFrames
60	60	140	2	mm	60	845	1056
Frame#	Time	humerus	radius
X1	Y1	Z1	X2	Y2	Z2

845	8.4401	6.07825	0.107819	0.0437676	6.08372	6.12683	0.52259	
846	8.4501	6.07703	0.111199	0.0496332	6.10778	6.12049	0.567221	
847	8.4601	6.076	0.114447	0.0554017	6.11988	6.11804	0.59044	
848	8.4701	6.07568	0.117517	0.0614019	6.1315	6.11567	0.614135	
849	8.4801	6.07589	0.120603	0.0674692	6.14222	6.11312	0.637925	
850	8.4901	6.07617	0.123732	0.0733596	6.15232	6.11032	0.662071	
851	8.5001	6.076	0.127135	0.0796121	6.16188	6.10695	0.686327	
852	8.5101	6.07542	0.130268	0.0846384	6.18038	6.09876	0.735724	
853	8.5201	6.075	0.134006	0.0892942	6.18993	6.09438	0.761327	
854	8.5301	6.07539	0.138601	0.0933606	6.19981	6.08978	0.78779	
855	8.5401	6.07587	0.14393	0.0973571	6.21001	6.08472	0.814423	
856	8.5501	6.07627	0.149127	0.10179	6.22066	6.07932	0.840916	
857	8.5601	6.07609	0.153933	0.106495	6.23152	6.0739	0.866907	
858	8.5701	6.0749	0.158084	0.111462	6.2536	6.06346	0.918335	
859	8.5801	6.07258	0.161617	0.116872	6.2646	6.05861	0.944125	
860	8.5901	6.06944	0.164712	0.122	6.27538	6.0542	0.970191	
861	8.6001	6.06608	0.167369	0.126211	0.00307026	6.05028	0.996958	
862	8.6101	6.06294	0.169804	0.12934	0.0255086	6.04321	1.05299	
863	8.6201	6.06009	0.172127	0.13155	0.0365957	6.03894	1.08113	
864	8.6301	6.05785	0.174361	0.133	0.0475352	6.03385	1.10891	
865	8.6401	6.05611	0.177135	0.133768	0.0584663	6.02791	1.13655	
866	8.6501	6.05467	0.180644	0.133897	0.0695878	6.02119	1.16379	
867	8.6601	6.05333	0.183663	0.13379	0.0813999	6.01362	1.19064	
868	8.6701	6.05132	0.186695	0.133572	0.107563	5.99507	1.24299	
869	8.6801	6.04847	0.189314	0.134141	0.121716	5.98526	1.26859	
870	8.6901	6.04464	0.191574	0.134528	0.136528	5.97585	1.29431	
871	8.7001	6.04024	0.193878	0.133705	0.151577	5.96822	1.32007	
872	8.7101	6.03671	0.195949	0.131135	0.181943	5.96057	1.37244	
873	8.7201	6.03451	0.198094	0.12716	0.196966	5.95973	1.39808	
874	8.7301	6.034	0.200701	0.121962	0.212042	5.96044	1.42323	
875	8.7401	6.03485	0.203774	0.115789	0.227161	5.96204	1.44784	
876	8.7501	6.03611	0.207005	0.10917	0.24198	5.96404	1.47183	
877	8.76011	6.0369	0.209979	0.102392	0.256468	5.96591	1.49526	
878	8.77011	6.0368	0.21241	0.0955261	0.283876	5.96821	1.54024	
879	8.78011	6.03569	0.214178	0.0890199	0.296944	5.96901	1.5616	
880	8.79011	6.03328	0.215021	0.0842882	0.309615	5.96973	1.58247	
881	8.80011	6.03177	0.21517	0.0825555	0.322009	5.97064	1.60274	
882	8.81011	6.02906	0.215371	0.0792293	0.334183	5.97217	1.62254	
883	8.82011	6.02778	0.215917	0.0752258	0.356479	5.97769	1.65805	
884	8.83011	6.0278	0.216912	0.0706887	0.365877	5.9816	1.67401	
885	8.84011	6.02856	0.218161	0.0657317	0.374127	5.98531	1.6891	
886	8.85011	6.02935	0.219341	0.0606827	0.381227	5.98763	1.70357	
887	8.86011	6.02922	0.220915	0.0559466	0.387446	5.98847	1.71724	
888	8.87011	6.02806	0.222466	0.0523895	0.393081	5.98849	1.72962	
889	8.88011	6.02596	0.223641	0.0505179	0.401574	5.98938	1.74906	
890	8.89011	6.02324	0.224178	0.0499494	0.403976	5.99119	1.75642	
891	8.90011	6.02103	0.224154	0.0495488	0.405138	5.99354	1.7625	
892	8.91011	6.01996	0.223627	0.048659	0.405222	5.99526	1.76711	
893	8.92011	6.01872	0.222878	0.0476465	0.404054	5.99561	1.77011	
894	8.93011	6.01659	0.221971	0.0470162	0.400169	5.99355	1.7727	
895	8.94011	6.01379	0.220919	0.0466133	0.397884	5.99183	1.77344	
896	8.95011	6.01093	0.220184	0.0466069	0.395279	5.98973	1.77376	
897	8.96011	6.00826	0.219756	0.0469032	0.392222	5.98754	1.77321	
898	8.97011	6.00586	0.219227	0.0471708	0.388938	5.98563	1.7716	
899	8.98011	6.00386	0.218332	0.0472001	0.382198	5.98236	1.7668	
900	8.99011	6.00225	0.217165	0.0469692	0.378973	5.98064	1.7641	
901	9.00011	6.00091	0.215898	0.0465731	0.375803	5.97867	1.76102	
902	9.01011	5.99971	0.214786	0.0459378	0.372569	5.9767	1.75758	
903	9.02011	5.99848	0.214	0.0451062	0.36918	5.9748	1.75395	
904	9.03011	5.99736	0.213413	0.044181	0.362375	5.97086	1.74684	
905	9.04011	5.99634	0.212894	0.043415	0.359213	5.96862	1.74345	
906	9.05011	5.9956	0.212237	0.042888	0.356267	5.96633	1.74016	
907	9.06011	5.99537	0.21155	0.0424854	0.353631	5.9644	1.737	
908	9.07011	5.99524	0.210936	0.0428211	0.351086	5.96288	1.73371	
909	9.08011	5.99502	0.21028	0.0436898	0.346053	5.96111	1.72667	
910	9.09011	5.99478	0.20956	0.0445089	0.343651	5.96061	1.72314	
911	9.10011	5.99435	0.208922	0.0452052	0.341224	5.96003	1.71973	
912	9.11011	5.99362	0.208366	0.0459512	0.338713	5.95914	1.7164	
913	9.12011	5.99256	0.207883	0.0474809	0.336285	5.95817	1.71303	
914	9.13011	5.99125	0.207332	0.0501377	0.331521	5.95729	1.70657	
915	9.14011	5.99028	0.206662	0.0529411	0.329319	5.958	1.70366	
916	9.15011	5.9898	0.206167	0.0551745	0.327306	5.95899	1.70097	
917	9.16011	5.98941	0.205924	0.0571267	0.32533	5.9597	1.69834	
918	9.17011	5.98905	0.2057	0.0591351	0.32341	5.96003	1.69591	
919	9.18011	5.98879	0.205361	0.0612974	0.321666	5.96023	1.69368	
920	9.19011	5.98837	0.205089	0.0637118	0.318677	5.96102	1.69003	
921	9.20012	5.98781	0.204919	0.0662891	0.317335	5.96181	1.68875	
922	9.21012	5.9873	0.204862	0.068788	0.316146	5.96283	1.68769	
923	9.22012	5.98684	0.204993	0.0710784	0.315117	5.96407	1.6868	
924	9.23012	5.98644	0.205355	0.0731201	0.314197	5.96543	1.68606	
925	9.24012	5.98633	0.20594	0.0747565	0.312458	5.96805	1.68517	
926	9.25012	5.9865	0.206776	0.0759345	0.311753	5.96914	1.68485	
927	9.26012	5.98672	0.207881	0.0766561	0.311187	5.97002	1.68453	
928	9.27012	5.98682	0.209197	0.0770647	0.310651	5.97078	1.68418	
929	9.28012	5.98679	0.210535	0.0772632	0.310098	5.97162	1.68386	
930	9.29012	5.98678	0.211905	0.0770468	0.309236	5.97376	1.68346	
931	9.30012	5.98688	0.213379	0.0763638	0.308835	5.97497	1.68315	
932	9.31012	5.9871	0.215038	0.0752546	0.308123	5.97625	1.68271	
933	9.32012	5.98753	0.216836	0.0738729	0.307149	5.97748	1.68218	
934	9.33012	5.98822	0.218778	0.0722856	0.306033	5.97856	1.68162	
935	9.34012	5.98902	0.220831	0.0705925	0.303696	5.97966	1.68003	
936	9.35012	5.98985	0.222753	0.0689958	0.302712	5.97963	1.67886	
937	9.36012	5.99075	0.224486	0.0674727	0.301842	5.97971	1.67746	
938	9.37012	5.99168	0.226093	0.0659578	0.300833	5.98016	1.67595	
939	9.38012	5.99257	0.227633	0.0644861	0.299659	5.98092	1.67438	
940	9.39012	5.99346	0.229061	0.0630352	0.298355	5.98169	1.67279	
941	9.40012	5.99429	0.230331	0.0616794	0.295413	5.98271	1.66957	
942	9.41012	5.99484	0.231422	0.0605631	0.29395	5.98281	1.66795	
943	9.42012	5.99513	0.232346	0.0596422	0.2924	5.98241	1.66621	
944	9.43012	5.99521	0.233115	0.0588616	0.29064	5.98174	1.6644	
945	9.44012	5.99514	0.233699	0.0583492	0.288356	5.98096	1.6614	
946	9.45012	5.9951	0.233955	0.058139	0.287883	5.98097	1.66008	
947	9.46012	5.99516	0.2347	0.0574	0.287398	5.98118	1.65865	
948	9.47012	5.99527	0.235133	0.0567975	0.286603	5.98146	1.65707	
949	9.48012	5.99545	0.235454	0.0561642	0.285611	5.98174	1.65565	
950	9.49012	5.99587	0.235744	0.0555166	0.284331	5.98132	1.65341	
951	9.50012	5.99617	0.235913	0.0552071	0.284189	5.98081	1.65231	
952	9.51012	5.99697	0.23631	0.0545717	0.284223	5.98043	1.65114	
953	9.52012	5.99801	0.236744	0.0538478	0.284333	5.98022	1.64992	
954	9.53012	5.99919	0.237217	0.0529424	0.284393	5.98018	1.6486	
955	9.54012	6.00043	0.237726	0.0519079	0.284268	5.98069	1.64578	
956	9.55012	6.00165	0.23824	0.0509066	0.284165	5.98117	1.64434	
957	9.56012	6.00302	0.238822	0.0499796	0.283973	5.98178	1.64288	
958	9.57012	6.00424	0.239368	0.0493216	0.283628	5.98239	1.64137	
959	9.58012	6.00555	0.240011	0.048655	0.283177	5.98289	1.6398	
960	9.59012	6.00664	0.240634	0.0479833	0.282663	5.98322	1.6382	
961	9.60012	6.00738	0.241225	0.0472091	0.282044	5.98331	1.63655	
962	9.61012	6.00773	0.241781	0.0463919	0.280304	5.98287	1.63315	
963	9.62012	6.00782	0.242226	0.0456105	0.280103	5.98259	1.63157	
964	9.63013	6.00792	0.242485	0.0446609	0.279915	5.98241	1.63019	
965	9.64013	6.00818	0.242721	0.0433911	0.279617	5.9822	1.62887	
966	9.65013	6.00843	0.242967	0.041813	0.277869	5.98142	1.62613	
967	9.66013	6.00848	0.243132	0.0400512	0.277038	5.9807	1.62486	
968	9.67013	6.00826	0.243138	0.0382957	0.276262	5.97994	1.62379	
969	9.68013	6.00793	0.243068	0.0365945	0.275364	5.97948	1.62284	
970	9.69013	6.00764	0.243034	0.0349193	0.274392	5.97929	1.62224	
971	9.70013	6.00739	0.243026	0.0333094	0.273566	5.979	1.6216	
972	9.71013	6.00714	0.24303	0.0317455	0.272802	5.97844	1.62074	
973	9.72013	6.00693	0.24308	0.030568	0.271715	5.97665	1.61891	
974	9.73013	6.00666	0.243183	0.0294165	0.271111	5.97557	1.61781	
975	9.74013	6.0064	0.243306	0.0282524	0.270347	5.97491	1.61642	
976	9.75013	6.00629	0.243477	0.0270488	0.269866	5.97498	1.61527	
977	9.76013	6.00627	0.243725	0.0258645	0.270228	5.97556	1.61411	
978	9.77013	6.00629	0.243992	0.0247803	0.270899	5.97633	1.61125	
979	9.78013	6.00626	0.244261	0.0238117	0.270778	5.97608	1.60992	
980	9.79013	6.00618	0.244568	0.0228947	0.270565	5.97543	1.60865	
981	9.80013	6.00612	0.244951	0.0220908	0.270341	5.97476	1.60735	
982	9.81013	6.00612	0.245328	0.0214442	0.26883	5.97406	1.60466	
983	9.82013	6.00628	0.245684	0.0207807	0.267673	5.9739	1.60334	
984	9.83013	6.00655	0.246018	0.0200222	0.266483	5.97373	1.60184	
